<?xml version="1.0" encoding="UTF-8"?>
<svg width="600px" height="600px" viewBox="0 0 600 600" version="1.1" xmlns="http://www.w3.org/2000/svg" xmlns:xlink="http://www.w3.org/1999/xlink">
    <title>assets/icon</title>
    <g id="/assets/icon" stroke="none" stroke-width="1" fill="none" fill-rule="evenodd">
        <g id="Uponor-Logo" transform="translate(130, 90)" fill="#000000">
            <path d="M303.097197,0 L265.215265,0 C244.281063,0 227.354205,16.9677275 227.354205,37.9008527 L227.354205,288.388757 C227.354205,319.778009 201.890868,345.219165 170.479128,345.219165 C139.109132,345.219165 113.645795,319.778009 113.645795,288.388757 L113.645795,37.9008527 C113.645795,16.9677275 96.6980659,0 75.7638634,0 L37.8819317,0 C16.9686008,0 0,16.9677275 0,37.9008527 L0,250.487904 C0,344.655661 76.3273963,421 170.479128,421 C264.651732,421 341,344.655661 341,250.487904 L341,37.9008527 C341,16.9677275 324.010528,0 303.097197,0" id="path2223"></path>
        </g>
    </g>
</svg>