<?xml version="1.0" encoding="UTF-8"?>
<svg width="600px" height="600px" viewBox="0 0 600 600" version="1.1" xmlns="http://www.w3.org/2000/svg" xmlns:xlink="http://www.w3.org/1999/xlink">
    <title>drivers/uponor/assets/icon</title>
    <g id="/drivers/uponor/assets/icon" stroke="none" stroke-width="1" fill="none" fill-rule="evenodd">
        <rect id="Rectangle" stroke="#000000" stroke-width="20" x="100" y="100" width="399" height="399" rx="50"></rect>
        <rect id="Rectangle" stroke="#000000" stroke-width="15" x="178.5" y="236.5" width="242" height="127" rx="46"></rect>
        <g id="Uponor-Logo" transform="translate(239, 434)" fill="#000000">
            <path d="M33.0006117,0 C27.4770821,0 23.0024478,4.57017955 23.0024478,10.2057767 L23.0024478,13.8566745 L23,13.8566745 L23,29.730523 C23,30.9845433 23.9974909,32 25.2214062,32 L27.4415885,32 C28.6716234,32 29.6678904,30.9845433 29.6678904,29.730523 L29.6678904,24.6145199 C30.7094423,24.9917252 31.8293248,25.1953162 32.9993878,25.1953162 C38.5241413,25.1953162 43,20.6263856 43,14.9907884 L43,10.2057767 C43.0012234,4.57017955 38.5253653,0 33.0006117,0 M36.3345569,17.2590164 C36.3345569,19.1375488 34.8401564,20.6601093 33.0006117,20.6601093 C31.1598431,20.6601093 29.6691143,19.1375488 29.6691143,17.2590164 L29.6691143,7.94004684 C29.6691143,6.06026542 31.1598431,4.53520687 33.0006117,4.53520687 C34.8401564,4.53520687 36.3345569,6.06026542 36.3345569,7.94004684 L36.3345569,17.2590164 Z" id="path2221"></path>
            <path d="M17.7769617,0 L15.5551475,0 C14.327335,0 13.3345575,1.00758477 13.3345575,2.25064446 L13.3345575,17.1252231 C13.3345575,18.9891929 11.8411066,20.4999504 9.99877586,20.4999504 C8.15889338,20.4999504 6.66544253,18.9891929 6.66544253,17.1252231 L6.66544253,2.25064446 C6.66544253,1.00758477 5.67144081,0 4.44362835,0 L2.22181418,0 C0.995225854,0 0,1.00758477 0,2.25064446 L0,14.8745786 C0,20.4664882 4.47668013,25 9.99877586,25 C15.5220957,25 20,20.4664882 20,14.8745786 L20,2.25064446 C20,1.00758477 19.00355,0 17.7769617,0" id="path2223"></path>
            <path d="M127.668166,0 L126.499679,0 C120.698375,0 116,4.53475114 116,10.1266607 L116,22.7505949 C116,23.9924152 117.041227,25 118.331834,25 L120.666238,25 C121.952989,25 122.995501,23.9924152 122.995501,22.7505949 L122.995501,7.87849494 C122.995501,6.01328574 124.565054,4.50004957 126.499679,4.50004957 L127.668166,4.50004957 C128.956202,4.50004957 130,3.49370414 130,2.25064446 C130,1.00758477 128.956202,0 127.668166,0" id="path2225"></path>
            <path d="M103,0 C97.4792559,0 93,4.53475114 93,10.1266607 L93,14.8745786 C93,20.4664882 97.4792559,25 103,25 C108.520744,25 113,20.4664882 113,14.8745786 L113,10.1266607 C113,4.53475114 108.520744,0 103,0 M106.33007,17.1252231 C106.33007,18.9891929 104.839432,20.4999504 102.998776,20.4999504 C101.156896,20.4999504 99.6650349,18.9891929 99.6650349,17.1252231 L99.6650349,7.87849494 C99.6650349,6.01328574 101.156896,4.50004957 102.998776,4.50004957 C104.839432,4.50004957 106.33007,6.01328574 106.33007,7.87849494 L106.33007,17.1252231 Z" id="path2227"></path>
            <path d="M80,0 C74.4761321,0 70,4.53475114 70,10.1266607 L70,22.7505949 C70,23.9924152 70.995104,25 72.2239902,25 L74.4443084,25 C75.6719706,25 76.6670746,23.9924152 76.6670746,22.7505949 L76.6670746,7.87849494 C76.6670746,6.01328574 78.1591186,4.50004957 79.9987759,4.50004957 C81.8396571,4.50004957 83.3341492,6.01328574 83.3341492,7.87849494 L83.3341492,22.7505949 C83.3341492,23.9924152 84.3292532,25 85.5544674,25 L87.7760096,25 C89.0073437,25 90,23.9924152 90,22.7505949 L90,10.1266607 C90.0012237,4.53475114 85.5238676,0 80,0" id="path2231"></path>
            <path d="M56.9981639,0 C51.4764061,0 47,4.53475114 47,10.1266607 L47,14.8745786 C47,20.4664882 51.4764061,25 56.9981639,25 C62.5235939,25 67,20.4664882 67,14.8745786 L67,10.1266607 C67,4.53475114 62.5235939,0 56.9981639,0 M60.3325173,17.1252231 C60.3325173,18.9891929 58.8391578,20.4999504 56.9981639,20.4999504 C55.158394,20.4999504 53.6638105,18.9891929 53.6638105,17.1252231 L53.6638105,7.87849494 C53.6638105,6.01328574 55.158394,4.50004957 56.9981639,4.50004957 C58.8391578,4.50004957 60.3325173,6.01328574 60.3325173,7.87849494 L60.3325173,17.1252231 Z" id="path2233"></path>
        </g>
        <text id="21" font-family="Arial-BoldMT, Arial" font-size="100" font-weight="bold" fill="#000000">
            <tspan x="248" y="335">21</tspan>
        </text>
    </g>
</svg>