<?xml version="1.0" encoding="UTF-8"?>
<svg width="600px" height="600px" viewBox="0 0 600 600" version="1.1" xmlns="http://www.w3.org/2000/svg" xmlns:xlink="http://www.w3.org/1999/xlink">
    <title>drivers/uponor/assets/icon</title>
    <g id="/drivers/uponor/assets/icon" stroke="none" stroke-width="1" fill="none" fill-rule="evenodd">
        <rect id="Rectangle" stroke="#000000" stroke-width="10" x="95" y="95" width="409" height="409" rx="50"></rect>
        <rect id="Rectangle" stroke="#000000" stroke-width="6" x="174" y="232" width="251" height="136" rx="46"></rect>
        <g id="Uponor-Logo" transform="translate(248, 442)" fill="#000000">
            <path d="M26.743,0 C22.23,0 18.574,3.659 18.574,8.171 L18.574,11.094 L18.572,11.094 L18.572,23.803 C18.572,24.807 19.387,25.62 20.387,25.62 L22.201,25.62 C23.206,25.62 24.02,24.807 24.02,23.803 L24.02,19.707 C24.871,20.009 25.786,20.172 26.742,20.172 C31.256,20.172 34.9130002,16.514 34.9130002,12.002 L34.9130002,8.171 C34.914,3.659 31.257,0 26.743,0 M29.467,13.818 C29.467,15.322 28.246,16.541 26.743,16.541 C25.239,16.541 24.021,15.322 24.021,13.818 L24.021,6.357 C24.021,4.852 25.239,3.631 26.743,3.631 C28.246,3.631 29.467,4.852 29.467,6.357 L29.467,13.818 Z" id="path2221"></path>
            <path d="M14.522,0 L12.707,0 C11.704,0 10.893,0.813 10.893,1.816 L10.893,13.818 C10.893,15.322 9.673,16.541 8.168,16.541 C6.665,16.541 5.445,15.322 5.445,13.818 L5.445,1.816 C5.445,0.813 4.633,0 3.63,0 L1.815,0 C0.813,0 0,0.813 0,1.816 L0,12.002 C0,16.514 3.657,20.172 8.168,20.172 C12.68,20.172 16.338,16.514 16.338,12.002 L16.338,1.816 C16.338,0.813 15.524,0 14.522,0" id="path2223"></path>
            <path d="M101.95,0 L101.041,0 C96.528,0 92.873,3.659 92.873,8.171 L92.873,18.357 C92.873,19.359 93.683,20.172 94.687,20.172 L96.503,20.172 C97.504,20.172 98.315,19.359 98.315,18.357 L98.315,6.357 C98.315,4.852 99.536,3.631 101.041,3.631 L101.95,3.631 C102.952,3.631 103.764,2.819 103.764,1.816 C103.764,0.813 102.952,0 101.95,0" id="path2225"></path>
            <path d="M82.467,0 C77.956,0 74.296,3.659 74.296,8.171 L74.296,12.002 C74.296,16.514 77.956,20.172 82.467,20.172 C86.978,20.172 90.638,16.514 90.638,12.002 L90.638,8.171 C90.638,3.659 86.978,0 82.467,0 M85.188,13.818 C85.188,15.322 83.97,16.541 82.466,16.541 C80.961,16.541 79.742,15.322 79.742,13.818 L79.742,6.357 C79.742,4.852 80.961,3.631 82.466,3.631 C83.97,3.631 85.188,4.852 85.188,6.357 L85.188,13.818 Z" id="path2227"></path>
            <path d="M63.892,0 C59.379,0 55.722,3.659 55.722,8.171 L55.722,18.357 C55.722,19.359 56.535,20.172 57.539,20.172 L59.353,20.172 C60.356,20.172 61.169,19.359 61.169,18.357 L61.169,6.357 C61.169,4.852 62.388,3.631 63.891,3.631 C65.395,3.631 66.616,4.852 66.616,6.357 L66.616,18.357 C66.616,19.359 67.429,20.172 68.43,20.172 L70.245,20.172 C71.251,20.172 72.0620002,19.359 72.0620002,18.357 L72.0620002,8.171 C72.063,3.659 68.405,0 63.892,0" id="path2231"></path>
            <path d="M45.317,0 C40.806,0 37.149,3.659 37.149,8.171 L37.149,12.002 C37.149,16.514 40.806,20.172 45.317,20.172 C49.831,20.172 53.488,16.514 53.488,12.002 L53.488,8.171 C53.488,3.659 49.831,0 45.317,0 M48.041,13.818 C48.041,15.322 46.821,16.541 45.317,16.541 C43.814,16.541 42.593,15.322 42.593,13.818 L42.593,6.357 C42.593,4.852 43.814,3.631 45.317,3.631 C46.821,3.631 48.041,4.852 48.041,6.357 L48.041,13.818 Z" id="path2233"></path>
        </g>
        <text id="21" font-family="ArialMT, Arial" font-size="100" font-weight="normal" fill="#000000">
            <tspan x="248" y="335">21</tspan>
        </text>
    </g>
</svg>